<?xml version="1.0" standalone="no"?>
<!DOCTYPE svg PUBLIC "-//W3C//DTD SVG 20010904//EN"
 "http://www.w3.org/TR/2001/REC-SVG-20010904/DTD/svg10.dtd">
<svg version="1.0" xmlns="http://www.w3.org/2000/svg"
 width="90.000000pt" height="95.000000pt" viewBox="0 0 90.000000 95.000000"
 preserveAspectRatio="xMidYMid meet">
<metadata>
Created by potrace 1.16, written by Peter Selinger 2001-2019
</metadata>
<g transform="translate(0.000000,95.000000) scale(0.100000,-0.100000)"
fill="#000000" stroke="none">
<path d="M0 475 l0 -475 450 0 450 0 0 475 0 475 -450 0 -450 0 0 -475z m524
271 c61 -26 146 -190 146 -284 0 -40 -25 -138 -38 -146 -4 -2 -6 30 -4 72 3
56 -2 94 -16 138 -22 70 -82 166 -123 196 -46 34 -24 49 35 24z"/>
</g>
</svg>
