<?xml version="1.0" standalone="no"?>
<!DOCTYPE svg PUBLIC "-//W3C//DTD SVG 20010904//EN"
 "http://www.w3.org/TR/2001/REC-SVG-20010904/DTD/svg10.dtd">
<svg version="1.0" xmlns="http://www.w3.org/2000/svg"
 width="90.000000pt" height="99.000000pt" viewBox="0 0 90.000000 99.000000"
 preserveAspectRatio="xMidYMid meet">
<metadata>
Created by potrace 1.16, written by Peter Selinger 2001-2019
</metadata>
<g transform="translate(0.000000,99.000000) scale(0.100000,-0.100000)"
fill="#000000" stroke="none">
<path d="M0 495 l0 -495 450 0 450 0 0 495 0 495 -450 0 -450 0 0 -495z m471
256 c51 -32 98 -97 131 -180 25 -64 32 -216 11 -263 l-12 -26 -39 19 c-69 35
-178 27 -264 -19 -12 -6 -58 96 -69 151 -25 136 78 347 169 347 16 0 48 -13
73 -29z m99 -6 c65 -62 117 -209 105 -293 -4 -26 -12 -60 -19 -77 -13 -29 -13
-28 -14 32 0 34 -3 81 -7 105 -11 64 -67 167 -122 222 l-48 49 39 -6 c22 -4
51 -18 66 -32z"/>
</g>
</svg>
