<?xml version="1.0" standalone="no"?>
<!DOCTYPE svg PUBLIC "-//W3C//DTD SVG 20010904//EN"
 "http://www.w3.org/TR/2001/REC-SVG-20010904/DTD/svg10.dtd">
<svg version="1.0" xmlns="http://www.w3.org/2000/svg"
 width="90.000000pt" height="95.000000pt" viewBox="0 0 90.000000 95.000000"
 preserveAspectRatio="xMidYMid meet">
<metadata>
Created by potrace 1.16, written by Peter Selinger 2001-2019
</metadata>
<g transform="translate(0.000000,95.000000) scale(0.100000,-0.100000)"
fill="#000000" stroke="none">
<path d="M0 475 l0 -475 450 0 450 0 0 475 0 475 -450 0 -450 0 0 -475z m315
121 c46 -21 135 -105 135 -127 0 -19 16 -6 40 32 55 89 178 140 254 104 86
-41 89 -167 7 -263 -19 -22 -20 -22 -78 -6 -86 24 -291 30 -378 10 -38 -8 -80
-18 -91 -21 -18 -6 -28 2 -52 38 -65 93 -62 188 7 234 44 29 92 29 156 -1z
m265 -256 c36 -6 80 -15 97 -21 35 -11 36 -6 -3 -67 -1 -2 -28 5 -60 14 -77
23 -228 23 -309 1 -60 -16 -60 -16 -77 6 -31 39 -28 42 84 62 91 16 183 18
268 5z m15 -126 c33 -8 64 -19 68 -23 17 -16 -117 -46 -208 -46 -94 1 -216 28
-199 45 36 36 239 51 339 24z"/>
</g>
</svg>
