<?xml version="1.0" standalone="no"?>
<!DOCTYPE svg PUBLIC "-//W3C//DTD SVG 20010904//EN"
 "http://www.w3.org/TR/2001/REC-SVG-20010904/DTD/svg10.dtd">
<svg version="1.0" xmlns="http://www.w3.org/2000/svg"
 width="101.000000pt" height="99.000000pt" viewBox="0 0 101.000000 99.000000"
 preserveAspectRatio="xMidYMid meet">

<g transform="translate(0.000000,99.000000) scale(0.100000,-0.100000)"
fill="#000000" stroke="none">
<path d="M0 495 l0 -495 505 0 505 0 0 495 0 495 -505 0 -505 0 0 -495z m414
191 c-81 -70 -183 -244 -214 -367 -6 -24 -15 -76 -19 -114 -7 -54 -9 -60 -10
-27 -1 32 -5 42 -18 43 -17 1 -17 2 -1 6 17 4 22 13 33 70 5 25 3 32 -12 36
-16 4 -16 5 2 6 14 1 25 14 36 45 15 43 15 45 -5 55 -21 11 -21 11 1 6 18 -5
26 1 42 34 20 38 20 41 3 51 -15 10 -15 10 4 5 28 -7 71 49 53 71 -10 12 -9
13 6 8 23 -9 68 45 53 64 -8 9 -7 11 5 6 9 -3 28 3 43 15 43 34 41 24 -2 -13z
m258 -13 c25 -23 24 -53 -3 -53 -24 0 -48 26 -49 53 0 22 28 22 52 0z m-149
-193 c2 -11 -9 -15 -38 -17 -39 -1 -39 -1 -6 5 l33 7 -22 20 c-12 11 -26 29
-32 40 -6 11 3 4 20 -15 l30 -35 -4 50 -3 50 10 -45 c6 -25 11 -52 12 -60z
m297 -38 c0 -6 8 -13 18 -15 13 -4 11 -5 -5 -6 -16 -1 -23 5 -23 17 0 10 -13
31 -30 47 -16 16 -30 32 -30 37 0 4 16 -9 35 -31 19 -21 35 -43 35 -49z"/>
<path d="M635 670 c-8 -13 13 -40 31 -40 17 0 18 22 2 38 -15 15 -25 15 -33 2z"/>
</g>
</svg>
