<?xml version="1.0" standalone="no"?>
<!DOCTYPE svg PUBLIC "-//W3C//DTD SVG 20010904//EN"
 "http://www.w3.org/TR/2001/REC-SVG-20010904/DTD/svg10.dtd">
<svg version="1.0" xmlns="http://www.w3.org/2000/svg"
 width="93.000000pt" height="99.000000pt" viewBox="0 0 93.000000 99.000000"
 preserveAspectRatio="xMidYMid meet">

<g transform="translate(0.000000,99.000000) scale(0.100000,-0.100000)"
fill="#000000" stroke="none">
<path d="M0 495 l0 -495 465 0 465 0 0 495 0 495 -465 0 -465 0 0 -495z m621
285 c19 0 42 -12 70 -37 41 -37 73 -86 63 -96 -3 -3 22 -59 57 -125 62 -119
62 -121 45 -147 -26 -39 -45 -42 -73 -9 -19 22 -21 23 -9 4 20 -31 20 -40 -1
-40 -9 0 -32 17 -52 38 -79 81 -99 94 -130 87 -37 -8 -68 23 -77 74 -10 60
-14 59 -8 -1 4 -41 2 -57 -8 -61 -7 -2 -6 -3 3 -2 13 2 18 -9 24 -49 8 -66 32
-103 108 -167 64 -54 107 -99 107 -111 0 -12 -618 -10 -625 2 -3 5 -3 25 1 45
5 28 11 35 30 35 19 0 23 -6 27 -37 l4 -38 1 43 c2 38 0 42 -22 42 -29 0 -36
16 -27 61 5 27 12 35 34 37 20 3 27 -1 28 -15 0 -10 8 7 18 37 10 30 22 63 26
73 4 10 3 17 -4 17 -6 0 -10 -3 -9 -7 1 -5 -4 -27 -12 -50 -14 -45 -44 -59
-57 -27 -9 23 23 84 44 84 15 0 16 2 3 10 -12 8 -12 13 3 44 17 37 43 46 64
25 8 -8 15 -5 24 12 11 21 10 23 -3 11 -17 -14 -48 -6 -48 12 1 18 37 56 54
56 21 0 30 -18 16 -35 -7 -8 -10 -15 -7 -15 2 0 17 16 32 36 23 30 24 33 6 23
-16 -11 -23 -11 -33 -1 -9 9 -7 17 12 37 13 14 29 25 37 25 7 0 13 6 13 14 0
25 50 56 77 50 35 -9 71 13 79 50 10 47 13 48 41 16 17 -21 34 -30 54 -30z
m49 19 c0 -12 -7 -15 -25 -12 -24 5 -24 6 -7 28 18 24 32 16 32 -16z"/>
<path d="M623 675 c0 -12 3 -12 16 -3 9 7 18 14 20 15 2 2 -5 3 -16 3 -11 0
-20 -7 -20 -15z"/>
<path d="M376 664 c-5 -14 -4 -15 9 -4 17 14 19 20 6 20 -5 0 -12 -7 -15 -16z"/>
<path d="M665 630 c-16 -7 -17 -9 -3 -9 9 -1 20 4 23 9 7 11 7 11 -20 0z"/>
<path d="M459 532 c5 -10 18 -25 27 -33 11 -9 9 -2 -6 19 -26 35 -36 42 -21
14z"/>
<path d="M778 490 c17 -20 32 -44 32 -53 0 -11 8 -17 23 -16 16 1 18 2 5 6
-10 2 -18 10 -18 17 0 7 -17 28 -37 47 l-38 34 33 -35z"/>
<path d="M255 489 c-4 -6 -5 -12 -2 -15 2 -3 7 2 10 11 7 17 1 20 -8 4z"/>
<path d="M182 270 c0 -14 2 -19 5 -12 2 6 2 18 0 25 -3 6 -5 1 -5 -13z"/>
</g>
</svg>
