<?xml version="1.0" standalone="no"?>
<!DOCTYPE svg PUBLIC "-//W3C//DTD SVG 20010904//EN"
 "http://www.w3.org/TR/2001/REC-SVG-20010904/DTD/svg10.dtd">
<svg version="1.0" xmlns="http://www.w3.org/2000/svg"
 width="70px" height="70px" viewBox="0 0 1200.000000 1920.000000"
 preserveAspectRatio="xMidYMid meet">

<g transform="translate(0.000000,1920.000000) scale(0.100000,-0.100000)"
fill="#000000" stroke="none">
<path d="M5730 16789 c-956 -84 -1824 -599 -2354 -1399 -445 -670 -613 -1464
-480 -2267 79 -483 290 -971 588 -1366 281 -373 640 -677 1051 -894 l120 -63
-772 0 c-529 0 -789 -4 -825 -11 -172 -36 -311 -175 -347 -347 -15 -73 -15
-1011 0 -1084 36 -171 175 -310 347 -347 36 -7 249 -11 674 -11 l621 0 -7
-312 c-36 -1641 -299 -3014 -807 -4213 -96 -227 -314 -658 -437 -862 -287
-477 -641 -914 -947 -1170 l-50 -42 3895 0 3895 -1 -55 47 c-90 75 -339 330
-429 438 -188 226 -390 516 -551 790 -102 175 -315 602 -399 800 -508 1197
-771 2571 -807 4213 l-7 312 621 0 c418 0 638 4 674 11 171 36 310 175 347
347 15 72 15 1010 0 1084 -36 172 -181 316 -350 348 -31 6 -364 10 -823 10
l-771 0 120 63 c673 354 1186 928 1468 1643 97 244 164 513 199 799 19 162 16
577 -5 735 -52 373 -142 673 -297 989 -350 713 -928 1251 -1662 1546 -440 178
-961 256 -1438 214z"/>
<path d="M945 1786 c-83 -20 -146 -56 -211 -120 -65 -66 -105 -137 -123 -224
-15 -73 -15 -1011 0 -1084 36 -171 175 -310 347 -347 75 -16 10008 -16 10084
0 171 36 310 175 347 347 15 72 15 1010 0 1084 -36 172 -181 316 -350 348 -83
16 -10030 12 -10094 -4z"/>
</g>
</svg>
