<?xml version="1.0" standalone="no"?>
<!DOCTYPE svg PUBLIC "-//W3C//DTD SVG 20010904//EN"
 "http://www.w3.org/TR/2001/REC-SVG-20010904/DTD/svg10.dtd">
<svg version="1.0" xmlns="http://www.w3.org/2000/svg"
 width="98.000000pt" height="97.000000pt" viewBox="0 0 98.000000 97.000000"
 preserveAspectRatio="xMidYMid meet">

<g transform="translate(0.000000,97.000000) scale(0.100000,-0.100000)"
fill="#000000" stroke="none">
<path d="M0 485 l0 -485 490 0 490 0 0 485 0 485 -490 0 -490 0 0 -485z m621
-121 c39 -9 69 -18 67 -20 -3 -2 -36 3 -74 11 -88 19 -170 19 -258 0 -88 -19
-99 -12 -14 8 84 20 193 21 279 1z m-111 -34 c12 -8 12 -10 -3 -16 -9 -3 -25
-3 -34 0 -15 6 -15 8 -3 16 8 6 17 10 20 10 3 0 12 -4 20 -10z m-130 -19 c0
-5 -6 -11 -12 -14 -18 -6 -39 3 -32 14 7 12 44 12 44 0z m258 0 c11 -7 10 -10
-3 -15 -19 -7 -35 0 -35 15 0 11 20 12 38 0z m21 -50 c23 -7 41 -15 38 -17 -3
-3 -29 2 -58 10 -68 20 -217 21 -293 1 -33 -9 -61 -13 -63 -11 -8 8 77 28 147
35 72 7 163 0 229 -18z m4 -36 c68 -24 54 -26 -28 -5 -107 29 -220 23 -340
-15 l-20 -7 20 13 c61 40 271 47 368 14z"/>
</g>
</svg>
