<?xml version="1.0" standalone="no"?>
<!DOCTYPE svg PUBLIC "-//W3C//DTD SVG 20010904//EN"
 "http://www.w3.org/TR/2001/REC-SVG-20010904/DTD/svg10.dtd">
<svg version="1.0" xmlns="http://www.w3.org/2000/svg"
 width="90.000000pt" height="95.000000pt" viewBox="0 0 90.000000 95.000000"
 preserveAspectRatio="xMidYMid meet">

<g transform="translate(0.000000,95.000000) scale(0.100000,-0.100000)"
fill="#000000" stroke="none">
<path d="M0 475 l0 -475 450 0 450 0 0 475 0 475 -450 0 -450 0 0 -475z m484
343 c8 -13 6 -22 -8 -37 -17 -19 -17 -25 5 -156 18 -108 25 -135 37 -133 9 2
37 52 64 113 40 89 47 114 39 132 -12 25 9 49 34 39 21 -7 19 -32 -4 -55 -15
-15 -20 -41 -26 -127 -4 -60 -6 -113 -6 -119 3 -27 36 -2 101 78 39 48 73 87
76 87 2 0 -5 -21 -15 -47 -10 -27 -36 -91 -56 -143 -21 -52 -41 -99 -45 -103
-4 -5 -34 -1 -66 9 -76 22 -237 22 -323 0 -35 -10 -64 -16 -65 -14 -1 2 -18
46 -39 98 -20 52 -45 119 -56 148 -12 28 -19 52 -17 52 2 0 37 -40 77 -90 41
-49 80 -90 87 -90 25 0 3 247 -24 267 -21 15 -14 48 11 48 16 0 20 -6 18 -35
-2 -44 86 -243 109 -248 12 -2 19 22 37 134 19 123 20 139 6 154 -18 20 -19
32 -3 48 16 16 38 12 52 -10z m-369 -143 c0 -23 -34 -33 -45 -14 -13 20 1 40
24 37 13 -2 21 -10 21 -23z m728 13 c7 -21 -4 -38 -23 -38 -23 0 -34 16 -26
35 7 18 43 20 49 3z m-208 -350 c38 -14 40 -17 36 -54 -1 -21 -4 -40 -5 -41
-1 -1 -24 5 -51 13 -30 9 -90 15 -150 16 -87 0 -129 -5 -207 -28 -13 -4 -18 3
-24 31 -8 45 0 54 68 71 68 17 277 12 333 -8z m-26 -93 c30 -8 59 -19 64 -24
20 -20 -2 -22 -50 -5 -68 25 -247 25 -327 1 -56 -18 -80 -17 -60 3 36 36 272
52 373 25z m-1 -40 c29 -9 50 -20 47 -25 -9 -14 -140 -40 -207 -40 -65 0 -175
23 -192 41 -6 6 -6 9 0 9 5 1 32 7 59 15 69 19 229 19 293 0z"/>
<path d="M436 321 c-3 -5 0 -11 7 -13 17 -7 38 2 31 13 -7 12 -31 12 -38 0z"/>
<path d="M313 313 c-7 -3 -13 -9 -13 -14 0 -12 37 -12 44 0 7 11 -14 20 -31
14z"/>
<path d="M572 313 c-6 -3 -10 -9 -6 -14 7 -12 44 -12 44 0 0 11 -21 19 -38 14z"/>
</g>
</svg>
