<?xml version="1.0" standalone="no"?>
<!DOCTYPE svg PUBLIC "-//W3C//DTD SVG 20010904//EN"
 "http://www.w3.org/TR/2001/REC-SVG-20010904/DTD/svg10.dtd">
<svg version="1.0" xmlns="http://www.w3.org/2000/svg"
 width="79.000000pt" height="101.000000pt" viewBox="0 0 79.000000 101.000000"
 preserveAspectRatio="xMidYMid meet">

<g transform="translate(0.000000,101.000000) scale(0.100000,-0.100000)"
fill="#000000" stroke="none">
<path d="M0 505 l0 -505 395 0 395 0 0 505 0 505 -395 0 -395 0 0 -505z m542
228 c-72 -2 -192 -2 -265 0 -72 1 -13 3 133 3 146 0 205 -2 132 -3z m-34 -60
c-53 -2 -143 -2 -200 0 -57 1 -13 3 97 3 110 0 156 -2 103 -3z m-10 -350 c-54
-2 -142 -2 -196 0 -53 1 -9 3 98 3 107 0 151 -2 98 -3z m25 -60 c-68 -2 -178
-2 -245 0 -68 1 -13 3 122 3 135 0 190 -2 123 -3z m10 -70 c-67 -2 -179 -2
-250 0 -70 1 -15 3 122 3 138 0 195 -2 128 -3z"/>
</g>
</svg>
