<?xml version="1.0" standalone="no"?>
<!DOCTYPE svg PUBLIC "-//W3C//DTD SVG 20010904//EN"
 "http://www.w3.org/TR/2001/REC-SVG-20010904/DTD/svg10.dtd">
<svg version="1.0" xmlns="http://www.w3.org/2000/svg"
 width="79.000000pt" height="97.000000pt" viewBox="0 0 79.000000 97.000000"
 preserveAspectRatio="xMidYMid meet">

<g transform="translate(0.000000,97.000000) scale(0.100000,-0.100000)"
fill="#000000" stroke="none">
<path d="M0 485 l0 -485 395 0 395 0 0 485 0 485 -395 0 -395 0 0 -485z m238
298 c3 -25 9 -33 31 -38 15 -3 40 -1 54 4 21 8 27 17 27 41 l0 31 53 -3 c50
-3 52 -4 55 -35 3 -25 9 -33 31 -38 15 -3 40 -1 54 4 21 8 27 17 27 41 0 31 0
31 48 28 l47 -3 3 -57 3 -58 -271 0 -270 0 0 44 c0 70 6 77 59 74 44 -3 46 -5
49 -35z m389 -128 c-28 -25 -30 -25 -226 -25 l-198 0 -23 25 -23 25 249 0 249
-1 -28 -24z m-27 -205 l0 -170 -197 2 -198 3 -3 168 -2 167 200 0 200 0 0
-170z m22 -197 c10 -9 18 -20 18 -25 0 -4 -109 -8 -242 -8 l-241 0 23 25 23
25 200 0 c172 0 203 -2 219 -17z m28 -68 l0 -25 -250 0 -250 0 0 25 0 25 250
0 250 0 0 -25z m30 -75 l0 -30 -277 2 c-259 3 -278 4 -281 21 -8 42 -6 42 282
39 l276 -3 0 -29z"/>
</g>
</svg>
