<?xml version="1.0" standalone="no"?>
<!DOCTYPE svg PUBLIC "-//W3C//DTD SVG 20010904//EN"
 "http://www.w3.org/TR/2001/REC-SVG-20010904/DTD/svg10.dtd">
<svg version="1.0" xmlns="http://www.w3.org/2000/svg"
 width="600px" height="600px" viewBox="0 0 950.000000 950.000000"
 preserveAspectRatio="xMidYMid meet">

<g transform="translate(0.000000,950.000000) scale(0.100000,-0.100000)"
fill="#000000" stroke="none">
<path d="M47 9473 c-4 -3 -7 -2129 -7 -4724 0 -4292 1 -4717 16 -4723 9 -3
2132 -6 4718 -6 3644 0 4705 3 4714 12 17 17 17 9419 0 9436 -9 9 -1072 12
-4723 12 -2592 0 -4715 -3 -4718 -7z m9393 -4723 l0 -4675 -4675 -3 -4675 -2
0 4680 0 4680 4675 -2 4675 -3 0 -4675z"/>
<path d="M3190 9299 c-32 -13 -68 -47 -85 -79 -67 -134 41 -286 177 -250 38
11 107 65 95 76 -2 3 -18 -9 -35 -26 -57 -56 -156 -35 -186 40 -30 75 -15 162
35 204 53 45 126 29 160 -35 l18 -34 1 58 c0 51 -12 76 -22 45 -3 -9 -12 -9
-38 0 -39 14 -86 14 -120 1z"/>
<path d="M7205 9287 c-52 -29 -89 -95 -89 -157 0 -118 110 -189 240 -157 l49
12 3 55 c3 76 10 100 27 100 8 0 15 3 15 8 0 8 -119 7 -127 -2 -4 -3 1 -6 11
-6 22 0 38 -44 34 -99 -3 -44 -4 -46 -42 -54 -72 -18 -136 36 -151 126 -10 54
11 122 47 152 52 44 139 27 168 -32 l15 -28 3 39 c4 47 -5 77 -17 57 -7 -11
-15 -11 -41 -2 -50 17 -101 13 -145 -12z"/>
<path d="M1130 9149 c-35 -84 -73 -157 -82 -163 -28 -17 -22 -21 29 -19 61 2
62 3 35 13 -22 9 -22 11 -7 46 8 20 15 38 15 40 0 2 29 4 66 4 65 0 65 0 80
-35 18 -44 18 -55 -1 -55 -8 0 -15 -3 -15 -7 0 -5 27 -8 60 -8 64 0 71 4 42
22 -10 6 -47 79 -82 162 -34 83 -65 151 -69 151 -3 0 -35 -68 -71 -151z m79
27 c38 -88 39 -86 -18 -86 -28 0 -51 4 -51 10 0 10 43 120 47 120 1 0 11 -20
22 -44z"/>
<path d="M2080 9288 c0 -4 8 -8 19 -8 24 0 31 -35 31 -159 0 -117 -6 -141 -33
-141 -11 0 -17 -3 -14 -7 4 -4 58 -5 120 -4 123 3 146 11 166 59 10 25 10 35
-3 60 -9 17 -24 33 -35 37 -18 6 -18 7 5 30 13 13 24 36 24 50 0 38 -50 85
-92 86 -159 5 -188 4 -188 -3z m185 -22 c66 -28 53 -107 -20 -120 -64 -12 -75
-3 -75 64 0 73 22 86 95 56z m30 -171 c27 -26 31 -46 15 -75 -13 -24 -72 -43
-110 -35 -30 6 -30 8 -30 71 l0 64 50 0 c41 0 56 -5 75 -25z"/>
<path d="M4124 9288 c-3 -5 4 -8 14 -8 29 0 33 -21 31 -154 -2 -136 -4 -146
-31 -146 -10 0 -16 -5 -13 -10 4 -6 47 -9 109 -7 154 4 207 44 214 160 3 52 0
67 -20 96 -39 58 -70 70 -192 73 -59 2 -110 0 -112 -4z m214 -34 c64 -45 76
-172 21 -230 -27 -29 -82 -48 -115 -40 l-24 6 0 140 0 140 48 0 c27 0 57 -7
70 -16z"/>
<path d="M5130 9291 c0 -6 9 -11 20 -11 19 0 20 -7 20 -149 0 -145 -1 -149
-22 -154 -38 -10 -17 -12 110 -9 l124 3 14 34 c21 50 17 54 -14 17 -29 -35
-85 -51 -136 -38 -25 6 -26 10 -26 76 l0 70 41 0 c48 0 78 -14 81 -38 0 -9 4
6 7 33 7 56 2 80 -10 47 -7 -19 -16 -22 -64 -22 l-55 0 0 60 c0 71 7 77 83 64
40 -7 54 -15 64 -34 12 -24 13 -24 13 13 l0 37 -109 0 c-60 0 -116 3 -125 6
-9 3 -16 1 -16 -5z"/>
<path d="M6190 9288 c0 -5 8 -8 19 -8 24 0 31 -35 31 -150 0 -115 -7 -150 -31
-150 -11 0 -19 -3 -19 -7 0 -5 29 -8 65 -8 65 0 84 8 45 18 -19 5 -21 12 -18
74 3 66 4 68 30 71 33 4 68 -13 68 -34 0 -8 3 -13 8 -11 4 3 5 29 3 59 -3 42
-5 48 -12 31 -7 -19 -16 -23 -54 -23 l-46 0 3 63 3 62 55 -2 c47 -2 58 -6 77
-30 l23 -28 0 30 c0 17 -4 35 -8 40 -8 12 -242 14 -242 3z"/>
<path d="M8184 9288 c-2 -4 6 -8 18 -10 23 -3 23 -6 26 -146 2 -137 2 -144
-18 -149 -39 -10 -19 -18 45 -18 36 0 65 3 65 8 0 4 -9 7 -20 7 -18 0 -20 7
-20 70 l0 70 75 0 75 0 0 -54 c0 -68 -7 -86 -33 -86 -11 0 -17 -3 -13 -7 9
-10 136 -10 136 -1 0 5 -9 8 -20 8 -19 0 -20 7 -20 150 0 143 1 150 20 150 11
0 20 3 20 8 0 4 -33 5 -72 3 -48 -3 -64 -6 -48 -10 23 -6 25 -12 28 -74 l3
-67 -76 0 -75 0 0 70 c0 63 2 70 20 70 11 0 20 3 20 8 0 9 -130 10 -136 0z"/>
<path d="M670 4750 l0 -4100 4100 0 4100 0 -2 4098 -3 4097 -4097 3 -4098 2 0
-4100z m1040 3565 l0 -495 505 0 505 0 1 488 c1 268 1 490 0 495 0 4 231 7
514 7 l515 0 0 -495 0 -495 505 -2 505 -3 0 498 0 497 515 0 515 0 0 -495 0
-495 505 0 505 0 1 488 c1 268 1 490 0 495 0 4 231 7 514 7 l515 0 0 -495 0
-495 500 0 500 0 0 -515 0 -515 -500 0 -500 0 0 -505 0 -505 500 0 500 0 0
-515 0 -515 -500 0 -500 0 0 -510 0 -510 500 0 500 0 0 -510 0 -510 -500 0
-500 0 0 -510 0 -510 500 0 500 0 0 -500 0 -500 -505 0 -505 0 0 497 1 498
-506 3 -505 2 0 -500 0 -500 -515 0 -515 0 0 497 1 498 -506 3 -505 2 0 -500
0 -500 -515 0 -515 0 0 498 1 497 -506 3 -505 2 0 -500 0 -500 -515 0 -515 0
0 498 1 497 -496 3 -495 2 0 510 0 510 495 0 495 0 2 488 c2 268 2 497 0 509
l-3 23 -495 0 -494 0 0 515 0 515 498 0 497 0 -2 502 -3 503 -495 3 -495 2 0
515 0 515 495 0 495 0 1 480 c1 264 2 490 2 503 l1 22 -497 3 -497 2 0 500 0
500 500 0 500 0 0 -495z"/>
<path d="M2730 7305 l0 -505 483 -2 c265 -2 493 -2 507 0 l25 3 -3 504 -2 505
-505 0 -505 0 0 -505z"/>
<path d="M4770 7305 l0 -505 508 0 507 0 -2 502 -3 503 -505 3 -505 2 0 -505z"/>
<path d="M6810 7305 l0 -505 508 0 507 0 -3 505 -2 505 -505 0 -505 0 0 -505z"/>
<path d="M1710 6286 c0 -464 1 -505 17 -508 9 -2 237 -2 507 0 l491 2 -2 488
c-2 268 -3 495 -3 505 0 16 -31 17 -505 17 l-505 0 0 -504z"/>
<path d="M3750 6285 l0 -505 508 0 507 0 -3 505 -2 505 -505 0 -505 0 0 -505z"/>
<path d="M5790 6286 c0 -464 1 -505 17 -508 9 -2 237 -2 507 0 l491 2 -3 505
-2 505 -505 0 -505 0 0 -504z"/>
<path d="M2730 5266 l0 -505 33 -3 c17 -2 246 -2 507 0 l475 2 -2 503 -3 502
-505 3 -505 2 0 -504z"/>
<path d="M4770 5266 c0 -327 4 -506 10 -508 5 -1 234 -2 507 0 l498 2 -2 503
-3 502 -505 3 -505 2 0 -504z"/>
<path d="M6810 5266 l0 -505 33 -3 c17 -2 246 -2 507 0 l475 2 -2 503 -3 502
-505 3 -505 2 0 -504z"/>
<path d="M1710 4240 l0 -510 505 0 505 0 2 506 c2 278 1 508 -1 510 -2 2 -231
4 -508 4 l-503 0 0 -510z"/>
<path d="M3750 4240 l0 -510 505 0 505 0 0 510 0 510 -505 0 -505 0 0 -510z"/>
<path d="M5790 4240 l0 -510 505 0 505 0 2 506 c2 278 1 508 -1 510 -2 2 -231
4 -508 4 l-503 0 0 -510z"/>
<path d="M2730 3220 l0 -510 505 0 505 0 0 510 0 510 -505 0 -505 0 0 -510z"/>
<path d="M4770 3220 l0 -510 505 0 505 0 1 485 c1 267 2 495 2 508 l1 22 -507
3 -507 2 0 -510z"/>
<path d="M6810 3220 l0 -510 504 0 c278 0 506 3 508 8 2 4 2 233 0 510 l-2
502 -505 0 -505 0 0 -510z"/>
<path d="M1710 2200 l0 -510 503 0 c277 0 506 2 508 4 2 2 3 232 1 510 l-2
506 -505 0 -505 0 0 -510z"/>
<path d="M3750 2200 l0 -510 505 0 505 0 0 510 0 510 -505 0 -505 0 0 -510z"/>
<path d="M5790 2200 l0 -510 503 0 c277 0 506 2 508 4 2 2 3 232 1 510 l-2
506 -505 0 -505 0 0 -510z"/>
<path d="M319 8431 c-16 -16 -29 -37 -29 -46 0 -24 28 -73 47 -84 16 -9 15
-13 -14 -42 -63 -61 -28 -139 62 -139 93 0 125 78 61 147 l-34 37 29 27 c38
36 39 80 3 108 -39 31 -89 28 -125 -8z m105 -7 c23 -22 20 -48 -8 -81 l-24
-28 -31 29 c-48 46 -37 96 20 96 15 0 35 -7 43 -16z m3 -204 c7 -8 12 -28 10
-45 -3 -40 -44 -56 -81 -31 -20 13 -26 25 -26 54 0 21 7 48 16 61 l16 22 26
-23 c15 -13 32 -30 39 -38z"/>
<path d="M9090 8432 c-16 -17 -30 -38 -30 -47 0 -21 24 -68 43 -83 12 -11 10
-17 -14 -43 -58 -63 -22 -139 66 -139 35 0 52 6 70 25 36 35 33 76 -10 123
l-34 38 29 26 c57 50 31 114 -49 125 -35 5 -44 2 -71 -25z m105 -16 c17 -26 9
-62 -19 -85 -15 -12 -21 -10 -46 14 -47 45 -36 95 22 95 18 0 33 -8 43 -24z
m13 -241 c-4 -40 -45 -56 -82 -31 -20 13 -26 25 -26 54 0 21 7 48 16 61 l16
23 40 -39 c31 -30 38 -44 36 -68z"/>
<path d="M297 7393 c-14 -37 -14 -60 1 -36 15 24 126 46 144 28 2 -3 -17 -69
-44 -146 -26 -78 -46 -144 -44 -147 17 -16 37 24 84 165 28 87 52 162 52 166
0 4 -40 7 -89 7 l-89 0 -15 -37z"/>
<path d="M9065 7394 c-8 -20 -15 -38 -15 -39 0 -2 17 6 37 16 34 17 113 26
125 14 2 -3 -14 -60 -37 -127 -61 -177 -58 -168 -42 -168 11 0 31 48 68 158
28 86 54 163 57 170 3 9 -18 12 -87 12 l-91 0 -15 -36z"/>
<path d="M437 6490 c-80 -15 -157 -112 -157 -198 0 -129 122 -190 187 -93 56
82 -8 193 -92 161 -15 -6 -30 -8 -32 -6 -3 3 5 23 18 46 24 41 73 80 103 80 9
0 16 5 16 10 0 6 -1 9 -2 9 -2 -1 -20 -5 -41 -9z m-13 -172 c18 -25 21 -100 6
-129 -17 -31 -66 -25 -85 11 -18 35 -20 111 -3 128 20 20 65 14 82 -10z"/>
<path d="M9202 6490 c-78 -18 -152 -115 -152 -198 0 -121 104 -183 176 -105
70 76 12 205 -78 174 -17 -6 -33 -9 -35 -7 -3 2 5 23 17 45 21 42 70 81 103
81 9 0 17 5 17 10 0 11 -1 11 -48 0z m-12 -165 c18 -22 25 -108 11 -134 -18
-33 -67 -29 -86 9 -18 36 -20 126 -2 133 25 11 65 6 77 -8z"/>
<path d="M330 5390 c-16 -33 -30 -62 -30 -65 0 -3 11 -5 25 -5 34 0 80 -24 99
-52 47 -67 -15 -149 -85 -113 -31 17 -49 13 -49 -10 0 -30 81 -34 123 -6 41
26 59 58 61 100 1 50 -26 89 -81 113 -31 14 -43 24 -39 35 3 8 6 17 6 19 0 2
22 4 50 4 39 0 52 4 60 20 10 19 8 20 -50 20 l-60 0 -30 -60z"/>
<path d="M9100 5390 c-16 -33 -30 -62 -30 -65 0 -3 13 -5 29 -5 37 0 93 -39
105 -73 13 -37 -3 -79 -36 -95 -23 -11 -32 -10 -59 3 -34 18 -56 9 -46 -19 9
-23 84 -21 120 3 41 27 58 56 59 101 1 54 -25 89 -83 113 -41 18 -46 23 -38
39 7 14 22 18 59 18 39 0 52 4 60 20 10 19 8 20 -50 20 l-60 0 -30 -60z"/>
<path d="M351 4323 c-100 -145 -100 -143 -12 -143 l71 0 0 -45 c0 -38 3 -45
20 -45 17 0 20 7 20 45 0 41 2 45 25 45 32 0 34 27 3 32 -22 3 -23 7 -24 108
-2 80 -5 106 -15 107 -8 2 -47 -45 -88 -104z m56 -110 c-3 -2 -28 -3 -56 -1
l-51 3 52 76 53 76 3 -75 c2 -41 1 -76 -1 -79z"/>
<path d="M9117 4318 c-43 -62 -77 -119 -77 -125 0 -9 21 -13 70 -13 l70 0 0
-45 c0 -38 3 -45 20 -45 17 0 20 7 20 45 0 41 2 45 25 45 32 0 34 27 3 32 -22
3 -23 8 -26 111 -2 80 -6 107 -16 107 -7 0 -47 -51 -89 -112z m63 -28 l0 -80
-56 0 c-31 0 -54 4 -52 8 4 10 102 151 106 152 1 0 2 -36 2 -80z"/>
<path d="M354 3400 c-22 -9 -54 -47 -54 -64 0 -5 10 0 23 12 27 26 59 28 81 6
31 -31 14 -87 -32 -106 l-27 -11 32 -8 c89 -25 80 -152 -9 -136 -62 12 -71 12
-75 0 -7 -20 41 -36 82 -29 53 10 95 52 102 103 5 37 2 46 -24 71 -28 29 -29
30 -11 52 49 60 -16 140 -88 110z"/>
<path d="M9130 3403 c-25 -9 -60 -45 -60 -62 0 -11 5 -9 20 7 25 27 61 28 83
4 32 -35 18 -74 -39 -109 -18 -11 -18 -12 4 -12 33 -1 72 -44 72 -79 0 -52
-59 -79 -112 -51 -27 15 -47 -3 -28 -26 25 -30 115 -11 155 35 31 34 28 105
-6 134 -26 22 -26 23 -8 45 24 29 24 73 2 94 -21 18 -62 28 -83 20z"/>
<path d="M335 2388 c-27 -15 -44 -39 -45 -60 0 -14 4 -13 25 7 29 30 68 32 95
5 42 -42 19 -108 -69 -202 -33 -36 -61 -68 -61 -72 0 -3 43 -6 95 -6 93 0 96
1 105 26 15 39 12 47 -12 30 -23 -17 -128 -23 -128 -8 0 4 16 24 36 43 80 76
115 166 81 210 -28 37 -83 49 -122 27z"/>
<path d="M9103 2388 c-19 -9 -57 -68 -48 -76 1 -2 14 8 28 22 31 31 70 33 97
6 43 -43 17 -113 -77 -208 -35 -36 -63 -66 -63 -68 0 -2 45 -4 100 -4 99 0
101 0 110 26 15 39 12 47 -12 30 -14 -10 -44 -16 -82 -16 l-60 0 46 48 c105
107 125 177 67 226 -32 27 -69 32 -106 14z"/>
<path d="M355 1328 c-39 -21 -39 -22 -15 -28 25 -6 25 -8 28 -120 3 -131 -1
-157 -26 -163 -9 -3 12 -5 48 -5 48 -1 59 2 43 8 -23 9 -23 13 -23 170 0 88
-3 160 -7 160 -5 -1 -26 -10 -48 -22z"/>
<path d="M9125 1327 c-34 -18 -37 -22 -19 -25 28 -4 34 -27 34 -142 0 -115 -6
-138 -34 -143 -11 -2 11 -5 49 -5 51 -1 64 2 48 8 -23 9 -23 13 -23 170 0 88
-3 160 -7 160 -5 -1 -26 -11 -48 -23z"/>
<path d="M3190 534 c-72 -31 -103 -81 -103 -166 0 -76 33 -129 97 -153 74 -28
145 -7 185 55 14 21 10 20 -22 -8 -32 -27 -46 -32 -88 -32 -42 0 -55 5 -79 28
-51 52 -52 177 -1 233 52 58 128 48 171 -24 l20 -32 0 59 c0 51 -2 57 -15 46
-12 -10 -24 -10 -54 -1 -49 14 -68 14 -111 -5z"/>
<path d="M7212 529 c-71 -35 -112 -126 -91 -201 22 -83 112 -137 207 -124 74
10 82 19 82 86 0 47 4 64 20 80 20 20 20 20 -47 19 -38 -1 -60 -3 -50 -6 23
-6 37 -43 37 -99 0 -39 -3 -46 -27 -55 -86 -33 -174 47 -173 157 1 83 68 152
137 141 40 -7 59 -20 85 -62 l19 -30 -2 50 c-3 57 -8 73 -19 54 -7 -10 -16
-10 -48 -1 -55 17 -81 15 -130 -9z"/>
<path d="M1126 380 c-41 -96 -74 -160 -82 -160 -8 0 -14 -4 -14 -10 0 -5 23
-10 50 -10 28 0 50 5 50 10 0 6 -6 10 -14 10 -23 0 -25 12 -9 53 l15 38 66 -3
66 -3 15 -38 c13 -35 13 -39 -5 -52 -17 -13 -12 -14 49 -15 43 0 66 4 62 10
-3 6 -12 10 -19 10 -13 0 -40 55 -111 228 -21 50 -41 92 -44 92 -3 0 -37 -72
-75 -160z m90 18 c10 -29 21 -56 22 -60 2 -4 -19 -8 -47 -8 -28 0 -51 4 -51 9
0 15 42 111 49 111 4 0 16 -23 27 -52z"/>
<path d="M2083 528 c-2 -5 3 -8 11 -8 28 0 36 -37 36 -157 0 -123 -2 -133 -35
-151 -16 -9 -1 -11 75 -12 143 0 189 18 205 83 6 23 2 33 -26 60 l-34 32 23
22 c29 29 28 65 -2 100 -23 27 -29 28 -136 33 -62 3 -114 2 -117 -2z m206 -44
c27 -35 26 -50 -4 -80 -20 -20 -33 -25 -68 -22 l-42 3 -3 63 -3 62 50 0 c42 0
53 -4 70 -26z m6 -149 c29 -28 31 -51 10 -82 -17 -25 -71 -39 -110 -29 -23 6
-25 10 -25 71 l0 65 50 0 c41 0 56 -5 75 -25z"/>
<path d="M4120 528 c0 -5 9 -8 19 -8 27 0 31 -18 31 -153 0 -127 -2 -136 -35
-156 -16 -9 1 -11 90 -9 125 4 162 18 203 79 20 29 23 44 20 96 -7 117 -55
150 -221 155 -59 2 -107 0 -107 -4z m210 -33 c75 -39 87 -172 21 -238 -25 -25
-38 -31 -78 -31 l-48 -1 -3 143 -3 142 41 0 c23 0 54 -7 70 -15z"/>
<path d="M5130 532 c0 -5 9 -12 20 -15 19 -5 20 -14 20 -151 0 -144 -2 -152
-32 -147 -5 0 -8 -4 -8 -9 0 -6 48 -10 125 -10 138 0 127 -6 150 70 7 21 3 19
-28 -13 -34 -37 -38 -38 -94 -35 l-58 3 -3 73 -3 72 35 0 c47 0 83 -15 88 -37
3 -10 6 6 9 35 2 30 1 56 -3 59 -5 2 -8 -3 -8 -12 0 -19 -39 -35 -86 -35 l-34
0 0 65 0 66 67 -3 c61 -3 69 -6 80 -28 12 -24 13 -24 13 13 l0 37 -109 0 c-60
0 -116 3 -125 6 -9 3 -16 2 -16 -4z"/>
<path d="M8183 528 c-2 -5 5 -8 15 -8 29 0 32 -17 32 -160 l0 -129 -27 -15
c-27 -15 -25 -15 45 -16 41 0 72 4 72 10 0 5 -3 9 -7 9 -29 -5 -33 4 -33 71
l0 70 75 0 76 0 -3 -67 c-3 -62 -5 -68 -25 -71 -51 -7 -19 -22 47 -22 40 0 70
4 70 10 0 6 -3 9 -7 9 -31 -5 -33 3 -33 147 0 137 1 146 20 151 40 10 19 18
-50 18 -38 0 -70 -3 -70 -7 0 -5 9 -8 19 -8 24 0 31 -19 31 -86 l0 -54 -75 0
-75 0 0 66 c0 57 3 67 20 71 39 10 19 18 -46 18 -36 0 -68 -3 -71 -7z"/>
<path d="M6203 523 c28 -7 37 -45 37 -147 0 -110 -8 -156 -26 -156 -7 0 -16
-5 -19 -10 -4 -6 20 -10 64 -10 48 0 71 4 71 12 0 6 -3 8 -6 5 -4 -3 -15 -2
-25 4 -16 8 -19 21 -19 74 l0 65 46 0 c37 0 47 -4 51 -20 10 -39 18 -19 14 37
-3 44 -5 53 -12 36 -8 -23 -67 -42 -88 -28 -6 3 -11 33 -11 66 l0 60 63 -3
c53 -3 63 -6 72 -25 14 -33 27 -28 23 10 l-3 32 -125 2 c-69 0 -117 -1 -107
-4z"/>
</g>
</svg>
